<svg width="573" height="20" viewBox="0 0 573 20" fill="none" xmlns="http://www.w3.org/2000/svg">
<rect x="0.5" y="0.5" width="572" height="19" rx="9.5" fill="white"/>
<rect x="0.5" y="0.5" width="572" height="19" rx="9.5" stroke="black"/>
<path d="M25.799 14V6.72727H26.8963V9.88778H30.522V6.72727H31.6229V14H30.522V10.8288H26.8963V14H25.799ZM34.723 14.1207C34.3774 14.1207 34.0649 14.0568 33.7855 13.929C33.5062 13.7988 33.2848 13.6106 33.1214 13.3643C32.9605 13.1181 32.88 12.8163 32.88 12.4588C32.88 12.151 32.9392 11.8977 33.0575 11.6989C33.1759 11.5 33.3357 11.3426 33.5369 11.2266C33.7382 11.1106 33.9631 11.023 34.2116 10.9638C34.4602 10.9046 34.7135 10.8596 34.9716 10.8288C35.2983 10.791 35.5634 10.7602 35.767 10.7365C35.9706 10.7105 36.1186 10.669 36.2109 10.6122C36.3033 10.5554 36.3494 10.4631 36.3494 10.3352V10.3104C36.3494 10.0002 36.2618 9.75994 36.0866 9.58949C35.9138 9.41903 35.6558 9.33381 35.3125 9.33381C34.955 9.33381 34.6733 9.41312 34.4673 9.57173C34.2637 9.72798 34.1229 9.90199 34.0447 10.0938L33.0469 9.86648C33.1652 9.53504 33.3381 9.26752 33.5653 9.06392C33.795 8.85795 34.0589 8.70881 34.3572 8.61648C34.6555 8.52178 34.9692 8.47443 35.2983 8.47443C35.5161 8.47443 35.7469 8.50047 35.9908 8.55256C36.237 8.60227 36.4666 8.6946 36.6797 8.82955C36.8951 8.96449 37.0715 9.15743 37.2088 9.40838C37.3461 9.65696 37.4148 9.98011 37.4148 10.3778V14H36.3778V13.2543H36.3352C36.2666 13.3916 36.1636 13.5265 36.0263 13.6591C35.889 13.7917 35.7126 13.9018 35.4972 13.9893C35.2817 14.0769 35.0237 14.1207 34.723 14.1207ZM34.9538 13.2685C35.2474 13.2685 35.4983 13.2105 35.7067 13.0945C35.9174 12.9785 36.0772 12.8269 36.1861 12.6399C36.2973 12.4505 36.353 12.2481 36.353 12.0327V11.3295C36.3151 11.3674 36.2417 11.4029 36.1328 11.4361C36.0263 11.4669 35.9044 11.4941 35.767 11.5178C35.6297 11.5391 35.496 11.5592 35.3658 11.5781C35.2356 11.5947 35.1267 11.6089 35.0391 11.6207C34.8331 11.6468 34.6449 11.6906 34.4744 11.7521C34.3063 11.8137 34.1714 11.9025 34.0696 12.0185C33.9702 12.1321 33.9205 12.2836 33.9205 12.473C33.9205 12.7358 34.0175 12.9347 34.2116 13.0696C34.4058 13.2022 34.6532 13.2685 34.9538 13.2685ZM39.8695 12.5121L42.2736 8.54545H43.4171V14H42.3766V10.0298L39.9831 14H38.829V8.54545H39.8695V12.5121ZM41.8191 6.69886H42.6926C42.6926 7.09896 42.5506 7.42448 42.2665 7.67543C41.9848 7.92401 41.6036 8.0483 41.123 8.0483C40.6448 8.0483 40.2649 7.92401 39.9831 7.67543C39.7014 7.42448 39.5605 7.09896 39.5605 6.69886H40.4306C40.4306 6.87642 40.4827 7.03385 40.5868 7.17116C40.691 7.30611 40.8697 7.37358 41.123 7.37358C41.3716 7.37358 41.5492 7.30611 41.6557 7.17116C41.7646 7.03622 41.8191 6.87879 41.8191 6.69886ZM44.1681 9.46165V8.54545H48.7704V9.46165H46.9913V14H45.9544V9.46165H44.1681ZM50.9339 12.5121L53.3381 8.54545H54.4815V14H53.4411V10.0298L51.0476 14H49.8935V8.54545H50.9339V12.5121ZM62.2523 10.8146V11.7344H59.2978V10.8146H62.2523ZM59.5961 8.54545V14H58.5556V8.54545H59.5961ZM62.9945 8.54545V14H61.9576V8.54545H62.9945ZM66.0023 14.1207C65.6567 14.1207 65.3442 14.0568 65.0648 13.929C64.7855 13.7988 64.5641 13.6106 64.4007 13.3643C64.2398 13.1181 64.1593 12.8163 64.1593 12.4588C64.1593 12.151 64.2185 11.8977 64.3368 11.6989C64.4552 11.5 64.615 11.3426 64.8162 11.2266C65.0175 11.1106 65.2424 11.023 65.4909 10.9638C65.7395 10.9046 65.9928 10.8596 66.2509 10.8288C66.5776 10.791 66.8427 10.7602 67.0463 10.7365C67.2499 10.7105 67.3979 10.669 67.4902 10.6122C67.5826 10.5554 67.6287 10.4631 67.6287 10.3352V10.3104C67.6287 10.0002 67.5411 9.75994 67.3659 9.58949C67.1931 9.41903 66.9351 9.33381 66.5918 9.33381C66.2343 9.33381 65.9526 9.41312 65.7466 9.57173C65.543 9.72798 65.4022 9.90199 65.324 10.0938L64.3262 9.86648C64.4445 9.53504 64.6174 9.26752 64.8446 9.06392C65.0743 8.85795 65.3382 8.70881 65.6365 8.61648C65.9348 8.52178 66.2485 8.47443 66.5776 8.47443C66.7954 8.47443 67.0262 8.50047 67.2701 8.55256C67.5163 8.60227 67.7459 8.6946 67.959 8.82955C68.1744 8.96449 68.3508 9.15743 68.4881 9.40838C68.6254 9.65696 68.6941 9.98011 68.6941 10.3778V14H67.6571V13.2543H67.6145C67.5459 13.3916 67.4429 13.5265 67.3056 13.6591C67.1683 13.7917 66.9919 13.9018 66.7765 13.9893C66.561 14.0769 66.303 14.1207 66.0023 14.1207ZM66.2331 13.2685C66.5267 13.2685 66.7776 13.2105 66.986 13.0945C67.1967 12.9785 67.3565 12.8269 67.4654 12.6399C67.5766 12.4505 67.6323 12.2481 67.6323 12.0327V11.3295C67.5944 11.3674 67.521 11.4029 67.4121 11.4361C67.3056 11.4669 67.1837 11.4941 67.0463 11.5178C66.909 11.5391 66.7753 11.5592 66.6451 11.5781C66.5149 11.5947 66.406 11.6089 66.3184 11.6207C66.1124 11.6468 65.9242 11.6906 65.7537 11.7521C65.5856 11.8137 65.4507 11.9025 65.3489 12.0185C65.2495 12.1321 65.1998 12.2836 65.1998 12.473C65.1998 12.7358 65.2968 12.9347 65.4909 13.0696C65.6851 13.2022 65.9325 13.2685 66.2331 13.2685ZM72.84 14V6.72727H73.9373V10.2003H74.0261L77.0765 6.72727H78.4579L75.5247 10.0014L78.4686 14H77.1475L74.7967 10.7507L73.9373 11.7379V14H72.84ZM79.7372 14V8.54545H80.799V14H79.7372ZM80.2734 7.70384C80.0888 7.70384 79.9302 7.64228 79.7976 7.51918C79.6674 7.3937 79.6023 7.24455 79.6023 7.07173C79.6023 6.89654 79.6674 6.7474 79.7976 6.62429C79.9302 6.49882 80.0888 6.43608 80.2734 6.43608C80.4581 6.43608 80.6155 6.49882 80.7457 6.62429C80.8783 6.7474 80.9446 6.89654 80.9446 7.07173C80.9446 7.24455 80.8783 7.3937 80.7457 7.51918C80.6155 7.64228 80.4581 7.70384 80.2734 7.70384ZM83.8148 14.1207C83.4692 14.1207 83.1567 14.0568 82.8773 13.929C82.598 13.7988 82.3766 13.6106 82.2132 13.3643C82.0523 13.1181 81.9718 12.8163 81.9718 12.4588C81.9718 12.151 82.031 11.8977 82.1493 11.6989C82.2677 11.5 82.4275 11.3426 82.6287 11.2266C82.83 11.1106 83.0549 11.023 83.3034 10.9638C83.552 10.9046 83.8053 10.8596 84.0634 10.8288C84.3901 10.791 84.6552 10.7602 84.8588 10.7365C85.0624 10.7105 85.2104 10.669 85.3027 10.6122C85.3951 10.5554 85.4412 10.4631 85.4412 10.3352V10.3104C85.4412 10.0002 85.3536 9.75994 85.1784 9.58949C85.0056 9.41903 84.7476 9.33381 84.4043 9.33381C84.0468 9.33381 83.7651 9.41312 83.5591 9.57173C83.3555 9.72798 83.2147 9.90199 83.1365 10.0938L82.1387 9.86648C82.257 9.53504 82.4299 9.26752 82.6571 9.06392C82.8868 8.85795 83.1507 8.70881 83.449 8.61648C83.7473 8.52178 84.061 8.47443 84.3901 8.47443C84.6079 8.47443 84.8387 8.50047 85.0826 8.55256C85.3288 8.60227 85.5584 8.6946 85.7715 8.82955C85.9869 8.96449 86.1633 9.15743 86.3006 9.40838C86.4379 9.65696 86.5066 9.98011 86.5066 10.3778V14H85.4696V13.2543H85.427C85.3584 13.3916 85.2554 13.5265 85.1181 13.6591C84.9808 13.7917 84.8044 13.9018 84.589 13.9893C84.3735 14.0769 84.1155 14.1207 83.8148 14.1207ZM84.0456 13.2685C84.3392 13.2685 84.5901 13.2105 84.7985 13.0945C85.0092 12.9785 85.169 12.8269 85.2779 12.6399C85.3891 12.4505 85.4448 12.2481 85.4448 12.0327V11.3295C85.4069 11.3674 85.3335 11.4029 85.2246 11.4361C85.1181 11.4669 84.9962 11.4941 84.8588 11.5178C84.7215 11.5391 84.5878 11.5592 84.4576 11.5781C84.3274 11.5947 84.2185 11.6089 84.1309 11.6207C83.9249 11.6468 83.7367 11.6906 83.5662 11.7521C83.3981 11.8137 83.2632 11.9025 83.1614 12.0185C83.062 12.1321 83.0123 12.2836 83.0123 12.473C83.0123 12.7358 83.1093 12.9347 83.3034 13.0696C83.4976 13.2022 83.745 13.2685 84.0456 13.2685ZM87.9208 14V8.54545H88.94V9.43324H89.0075C89.1211 9.13258 89.3069 8.8982 89.565 8.73011C89.823 8.55966 90.132 8.47443 90.4918 8.47443C90.8564 8.47443 91.1618 8.55966 91.408 8.73011C91.6566 8.90057 91.8401 9.13494 91.9585 9.43324H92.0153C92.1455 9.14205 92.3526 8.91004 92.6367 8.73722C92.9208 8.56203 93.2594 8.47443 93.6523 8.47443C94.1471 8.47443 94.5508 8.6295 94.8633 8.93963C95.1781 9.24976 95.3356 9.71733 95.3356 10.3423V14H94.2738V10.4418C94.2738 10.0724 94.1732 9.80492 93.9719 9.6392C93.7707 9.47348 93.5304 9.39062 93.2511 9.39062C92.9054 9.39062 92.6367 9.49716 92.445 9.71023C92.2532 9.92093 92.1573 10.192 92.1573 10.5234V14H91.0991V10.3743C91.0991 10.0784 91.0067 9.84044 90.8221 9.66051C90.6374 9.48059 90.3971 9.39062 90.1012 9.39062C89.9 9.39062 89.7141 9.44389 89.5437 9.55043C89.3756 9.65459 89.2395 9.80019 89.1353 9.98722C89.0335 10.1742 88.9826 10.3909 88.9826 10.6371V14H87.9208ZM99.0563 14.1101C98.5449 14.1101 98.0987 13.9929 97.7175 13.7585C97.3364 13.5241 97.0404 13.1963 96.8297 12.7749C96.619 12.3535 96.5137 11.861 96.5137 11.2976C96.5137 10.7318 96.619 10.237 96.8297 9.81321C97.0404 9.38944 97.3364 9.06037 97.7175 8.82599C98.0987 8.59162 98.5449 8.47443 99.0563 8.47443C99.5676 8.47443 100.014 8.59162 100.395 8.82599C100.776 9.06037 101.072 9.38944 101.283 9.81321C101.494 10.237 101.599 10.7318 101.599 11.2976C101.599 11.861 101.494 12.3535 101.283 12.7749C101.072 13.1963 100.776 13.5241 100.395 13.7585C100.014 13.9929 99.5676 14.1101 99.0563 14.1101ZM99.0598 13.2188C99.3913 13.2188 99.6659 13.1312 99.8837 12.956C100.102 12.7808 100.262 12.5476 100.367 12.2564C100.473 11.9652 100.526 11.6444 100.526 11.294C100.526 10.946 100.473 10.6264 100.367 10.3352C100.262 10.0417 100.102 9.80611 99.8837 9.62855C99.6659 9.45099 99.3913 9.36222 99.0598 9.36222C98.726 9.36222 98.449 9.45099 98.2289 9.62855C98.0111 9.80611 97.8489 10.0417 97.7424 10.3352C97.6382 10.6264 97.5861 10.946 97.5861 11.294C97.5861 11.6444 97.6382 11.9652 97.7424 12.2564C97.8489 12.5476 98.0111 12.7808 98.2289 12.956C98.449 13.1312 98.726 13.2188 99.0598 13.2188ZM107.265 8.54545L105.287 14H104.15L102.169 8.54545H103.309L104.69 12.7429H104.747L106.125 8.54545H107.265ZM114.996 9.87713L114.034 10.0476C113.994 9.92448 113.93 9.80729 113.842 9.69602C113.757 9.58475 113.641 9.49361 113.494 9.42259C113.348 9.35156 113.164 9.31605 112.944 9.31605C112.643 9.31605 112.392 9.38352 112.191 9.51847C111.99 9.65104 111.889 9.82268 111.889 10.0334C111.889 10.2157 111.957 10.3625 112.092 10.4737C112.227 10.585 112.444 10.6761 112.745 10.7472L113.612 10.946C114.113 11.062 114.487 11.2408 114.734 11.4822C114.98 11.7237 115.103 12.0374 115.103 12.4233C115.103 12.75 115.008 13.0412 114.819 13.2969C114.632 13.5502 114.37 13.7491 114.034 13.8935C113.7 14.0379 113.313 14.1101 112.873 14.1101C112.262 14.1101 111.764 13.9799 111.378 13.7195C110.992 13.4567 110.755 13.0838 110.668 12.6009L111.694 12.4446C111.758 12.7121 111.889 12.9145 112.088 13.0518C112.287 13.1868 112.546 13.2543 112.866 13.2543C113.214 13.2543 113.492 13.1821 113.7 13.0376C113.909 12.8909 114.013 12.7121 114.013 12.5014C114.013 12.331 113.949 12.1877 113.821 12.0717C113.696 11.9557 113.503 11.8681 113.242 11.8089L112.319 11.6065C111.81 11.4905 111.433 11.3059 111.19 11.0526C110.948 10.7992 110.827 10.4785 110.827 10.0902C110.827 9.76823 110.917 9.48651 111.097 9.24503C111.277 9.00355 111.526 8.81534 111.843 8.6804C112.16 8.54309 112.524 8.47443 112.933 8.47443C113.523 8.47443 113.987 8.60227 114.325 8.85795C114.664 9.11127 114.888 9.45099 114.996 9.87713ZM118.817 8.54545V9.39773H115.837V8.54545H118.817ZM116.636 7.23864H117.698V12.3984C117.698 12.6044 117.729 12.7595 117.79 12.8636C117.852 12.9654 117.931 13.0353 118.028 13.0732C118.128 13.1087 118.235 13.1264 118.351 13.1264C118.437 13.1264 118.511 13.1205 118.575 13.1087C118.639 13.0968 118.689 13.0874 118.724 13.0803L118.916 13.9574C118.854 13.9811 118.767 14.0047 118.653 14.0284C118.54 14.0545 118.398 14.0687 118.227 14.071C117.948 14.0758 117.687 14.026 117.446 13.9219C117.204 13.8177 117.009 13.6567 116.86 13.4389C116.711 13.2211 116.636 12.9477 116.636 12.6186V7.23864ZM122.23 14.1101C121.719 14.1101 121.272 13.9929 120.891 13.7585C120.51 13.5241 120.214 13.1963 120.004 12.7749C119.793 12.3535 119.688 11.861 119.688 11.2976C119.688 10.7318 119.793 10.237 120.004 9.81321C120.214 9.38944 120.51 9.06037 120.891 8.82599C121.272 8.59162 121.719 8.47443 122.23 8.47443C122.741 8.47443 123.188 8.59162 123.569 8.82599C123.95 9.06037 124.246 9.38944 124.457 9.81321C124.667 10.237 124.773 10.7318 124.773 11.2976C124.773 11.861 124.667 12.3535 124.457 12.7749C124.246 13.1963 123.95 13.5241 123.569 13.7585C123.188 13.9929 122.741 14.1101 122.23 14.1101ZM122.234 13.2188C122.565 13.2188 122.84 13.1312 123.058 12.956C123.275 12.7808 123.436 12.5476 123.54 12.2564C123.647 11.9652 123.7 11.6444 123.7 11.294C123.7 10.946 123.647 10.6264 123.54 10.3352C123.436 10.0417 123.275 9.80611 123.058 9.62855C122.84 9.45099 122.565 9.36222 122.234 9.36222C121.9 9.36222 121.623 9.45099 121.403 9.62855C121.185 9.80611 121.023 10.0417 120.916 10.3352C120.812 10.6264 120.76 10.946 120.76 11.294C120.76 11.6444 120.812 11.9652 120.916 12.2564C121.023 12.5476 121.185 12.7808 121.403 12.956C121.623 13.1312 121.9 13.2188 122.234 13.2188ZM125.958 14V8.54545H126.984V9.41193H127.041C127.14 9.11837 127.316 8.88755 127.567 8.71946C127.82 8.54901 128.106 8.46378 128.426 8.46378C128.492 8.46378 128.57 8.46615 128.66 8.47088C128.753 8.47562 128.825 8.48153 128.877 8.48864V9.50426C128.834 9.49242 128.759 9.4794 128.65 9.4652C128.541 9.44863 128.432 9.44034 128.323 9.44034C128.072 9.44034 127.848 9.49361 127.652 9.60014C127.458 9.70431 127.304 9.84991 127.19 10.0369C127.077 10.2216 127.02 10.4323 127.02 10.669V14H125.958ZM131.951 14.1101C131.414 14.1101 130.951 13.9953 130.563 13.7656C130.177 13.5336 129.879 13.2081 129.668 12.7891C129.46 12.3677 129.355 11.8741 129.355 11.3082C129.355 10.7495 129.46 10.2571 129.668 9.83097C129.879 9.40483 130.172 9.07221 130.549 8.8331C130.927 8.59399 131.37 8.47443 131.877 8.47443C132.185 8.47443 132.483 8.52533 132.772 8.62713C133.06 8.72893 133.32 8.88873 133.549 9.10653C133.779 9.32434 133.96 9.60724 134.093 9.95526C134.225 10.3009 134.292 10.7211 134.292 11.2159V11.5923H129.956V10.7969H133.251C133.251 10.5175 133.194 10.2701 133.081 10.0547C132.967 9.83688 132.807 9.66525 132.601 9.53977C132.398 9.4143 132.158 9.35156 131.884 9.35156C131.586 9.35156 131.325 9.42495 131.103 9.57173C130.882 9.71615 130.712 9.90554 130.591 10.1399C130.473 10.3719 130.414 10.6241 130.414 10.8963V11.5178C130.414 11.8823 130.478 12.1925 130.605 12.4482C130.736 12.7038 130.917 12.8991 131.149 13.0341C131.381 13.1667 131.652 13.233 131.962 13.233C132.163 13.233 132.347 13.2045 132.512 13.1477C132.678 13.0885 132.821 13.0009 132.942 12.8849C133.063 12.7689 133.155 12.6257 133.219 12.4553L134.224 12.6364C134.144 12.9323 133.999 13.1915 133.791 13.4141C133.585 13.6342 133.326 13.8059 133.013 13.929C132.703 14.0497 132.349 14.1101 131.951 14.1101ZM136.169 14.0675C135.975 14.0675 135.808 13.9988 135.669 13.8615C135.529 13.7218 135.459 13.5537 135.459 13.3572C135.459 13.1631 135.529 12.9974 135.669 12.8601C135.808 12.7204 135.975 12.6506 136.169 12.6506C136.363 12.6506 136.53 12.7204 136.67 12.8601C136.81 12.9974 136.879 13.1631 136.879 13.3572C136.879 13.4875 136.846 13.607 136.78 13.7159C136.716 13.8224 136.631 13.9077 136.524 13.9716C136.418 14.0355 136.299 14.0675 136.169 14.0675ZM139.001 14.0675C138.807 14.0675 138.64 13.9988 138.501 13.8615C138.361 13.7218 138.291 13.5537 138.291 13.3572C138.291 13.1631 138.361 12.9974 138.501 12.8601C138.64 12.7204 138.807 12.6506 139.001 12.6506C139.195 12.6506 139.362 12.7204 139.502 12.8601C139.642 12.9974 139.711 13.1631 139.711 13.3572C139.711 13.4875 139.678 13.607 139.612 13.7159C139.548 13.8224 139.463 13.9077 139.356 13.9716C139.25 14.0355 139.131 14.0675 139.001 14.0675ZM141.833 14.0675C141.639 14.0675 141.472 13.9988 141.333 13.8615C141.193 13.7218 141.123 13.5537 141.123 13.3572C141.123 13.1631 141.193 12.9974 141.333 12.8601C141.472 12.7204 141.639 12.6506 141.833 12.6506C142.027 12.6506 142.194 12.7204 142.334 12.8601C142.474 12.9974 142.544 13.1631 142.544 13.3572C142.544 13.4875 142.51 13.607 142.444 13.7159C142.38 13.8224 142.295 13.9077 142.188 13.9716C142.082 14.0355 141.963 14.0675 141.833 14.0675Z" fill="#878787"/>
</svg>
